<?xml version="1.0" encoding="UTF-8" standalone="no"?>
<!DOCTYPE svg PUBLIC "-//W3C//DTD SVG 1.1//EN" "http://www.w3.org/Graphics/SVG/1.1/DTD/svg11.dtd">
<svg width="100%" height="100%" viewBox="0 0 300 300" version="1.1" xmlns="http://www.w3.org/2000/svg" xmlns:xlink="http://www.w3.org/1999/xlink" xml:space="preserve" xmlns:serif="http://www.serif.com/" style="fill-rule:evenodd;clip-rule:evenodd;stroke-linejoin:round;stroke-miterlimit:2;">
    <g id="Layer-1" serif:id="Layer 1">
        <path id="path2207" d="M128.93,268.204C126.447,262.754 124.415,254.877 124.415,250.699C124.415,246.521 121.789,243.102 118.58,243.102C115.212,243.102 112.745,246.62 112.745,251.425C112.745,262.36 102.119,270.054 86.806,270.208C60.023,270.477 51.131,256.156 76.763,254.034C98.265,252.255 96.603,241.535 74.578,239.949C61.289,238.992 58.065,237.377 59.051,232.169C59.902,227.675 64.897,225.215 74.851,224.39C92.139,222.956 94.538,215.872 77.736,215.872C63.202,215.872 61.748,205.434 75.791,201.91C90.704,198.167 104.83,203.341 108.897,214.036C114.796,229.552 123.601,225.906 126.472,206.756C131.142,175.619 122.95,158.075 113.463,178.895C107.991,190.905 92.026,197.616 76.854,194.284C59.126,190.39 66.436,180.522 91.351,174.716C102.592,172.097 102.312,171.838 83.7,167.677C59.159,162.19 58.685,155.926 82.694,154.388C103.489,153.056 104.229,145.853 83.571,145.853C66.547,145.853 63.255,140.094 75.638,131.98C88.654,123.452 102.245,127.216 113.008,142.332C122.554,155.737 128.139,152.394 128.246,133.211C128.303,122.85 127.642,122.513 107.229,122.513C95.636,122.513 83.383,121.451 79.999,120.152C71.534,116.904 72.19,98.19 81.158,87.116C87.297,79.534 92.958,77.832 116.464,76.504C135.548,75.426 145.116,73.21 146.523,69.543C149.488,61.816 156.775,62.917 162.412,71.944C166.397,78.325 171.484,79.724 190.702,79.724C221.092,79.724 241.114,87.799 241.114,100.054C241.114,105.036 238.389,113.003 235.059,117.758C229.866,125.171 225.43,126.403 203.939,126.403L178.875,126.403L178.875,153.633L205.326,153.633C220.713,153.633 233.731,155.585 236.446,158.301C239.313,161.167 241.114,175.196 241.114,194.653C241.114,233.29 236.653,239.212 207.549,239.212C187.476,239.212 178.875,243.95 178.875,255.007C178.875,259.954 184.494,262.276 202.887,264.926C216.094,266.83 227.618,270.575 228.496,273.249C229.716,276.964 218.686,278.112 181.768,278.112C133.759,278.112 133.414,278.047 128.93,268.204ZM162.613,251.854C163.619,244.772 161.993,243.102 154.09,243.102C143.008,243.102 138.221,248.479 141.558,257.176C145.075,266.341 161.132,262.282 162.613,251.854ZM162.518,197.12L163.667,168.642L152.793,169.89C142.115,171.115 141.899,171.648 140.772,199.615L139.623,228.093L150.496,226.845C161.175,225.619 161.39,225.087 162.518,197.12ZM213.884,222.485C213.884,217.122 206.355,208.092 201.884,208.092C200.418,208.092 196.352,212.468 192.847,217.817L186.475,227.542L200.18,227.542C208.831,227.542 213.884,225.678 213.884,222.485ZM191.986,199.434C195.889,193.247 189.724,180.863 182.742,180.863C179.126,180.863 174.939,200.982 177.644,205.358C180.352,209.74 187.294,206.873 191.986,199.434ZM225.554,193.644C225.554,180.389 225.039,179.71 219.319,185.43C215.339,189.411 214.027,194.634 215.692,199.879C219.854,212.992 225.554,209.389 225.554,193.644ZM209.994,175.028C214.089,170.093 213.262,169.193 204.636,169.193C194.774,169.193 191.663,172.904 197.028,178.269C201.053,182.295 204.725,181.377 209.994,175.028ZM164.708,139.045C166.034,131.022 167.138,117.019 167.162,107.926C167.203,92.14 166.678,91.393 155.535,91.393L143.865,91.393L143.865,122.513C143.865,152.656 144.154,153.633 153.081,153.633C160.708,153.633 162.712,151.119 164.708,139.045ZM127.603,100.146C128.715,92.318 127.199,91.393 113.245,91.393C96.781,91.393 91.133,95.707 94.865,105.431C96.454,109.573 101.455,110.958 111.742,110.107C123.491,109.136 126.604,107.18 127.603,100.146ZM219.929,106.614C223.813,100.329 217.765,96.57 199.297,93.79C183.575,91.423 182.765,91.78 182.765,101.072C182.765,110.04 184.185,110.843 200.04,110.843C209.541,110.843 218.491,108.94 219.929,106.614ZM76.277,68.841C72.81,63.23 76.388,61.613 99.13,58.509C116.793,56.099 136.029,47.126 131.911,43.218C130.998,42.35 120.623,40.128 108.855,38.278C93.995,35.943 87.461,33.145 87.461,29.118C87.461,24.282 97.246,23.141 146.392,22.247C200.124,21.27 206.528,21.887 218.981,29.234C247.349,45.972 239.467,61.091 201.29,63.171C187.892,63.9 174.517,62.868 171.569,60.876C161.664,54.183 171.384,48.604 192.949,48.604C206.221,48.604 213.431,47.127 211.939,44.714C210.617,42.574 196.628,40.824 180.852,40.824C156.261,40.824 151.84,41.861 149.863,48.091C145.313,62.425 133.766,68.375 105.974,70.705C88.588,72.162 77.916,71.492 76.277,68.841Z" style="fill:rgb(254,255,254);fill-rule:nonzero;"/>
    </g>
</svg>
